<svg xmlns="http://www.w3.org/2000/svg" xmlns:v="https://svgstorm.com"
viewBox = "0 0 886 887"
width="886"
height="887">
<path d="
M 0.00 398.00 
L 0.00 489.00
C 13.18 598.96 61.78 697.26 146.25 773.75 C 230.71 850.24 349.74 892.95 465.00 886.00 C 580.26 879.05 680.23 833.82 760.75 750.75 C 841.28 667.69 884.03 558.49 884.00 443.00 C 883.97 327.51 839.95 219.23 759.77 136.23 C 679.59 53.23 577.56 8.66 463.00 2.00 C 348.44 -4.66 230.24 37.27 146.08 114.08 C 61.93 190.90 12.90 288.17 0.00 398.00
M 438.00 139.00 
C 424.43 140.20 406.32 138.54 392.00 139.00 C 377.68 139.46 362.51 142.24 349.33 144.33 C 336.15 146.42 325.52 150.30 315.92 158.92 C 306.31 167.53 298.75 174.54 296.07 187.07 C 293.40 199.61 299.71 213.54 309.25 221.75 C 318.79 229.97 317.15 244.60 326.30 252.70 C 335.45 260.80 340.61 269.87 348.75 278.25 C 356.90 286.62 363.32 295.39 371.25 303.75 C 379.17 312.12 386.02 320.83 393.75 329.25 C 401.49 337.67 407.94 346.91 415.75 355.25 C 423.56 363.59 431.18 371.98 438.25 380.75 C 445.32 389.52 453.17 397.74 460.75 406.25 C 468.33 414.76 475.37 423.46 483.25 431.75 C 491.13 440.04 497.33 449.51 505.25 457.75 C 513.17 466.00 520.03 474.72 528.25 482.75 C 536.47 490.79 542.33 502.01 552.00 508.00
C 563.00 492.86 575.95 478.52 589.00 465.00
C 590.22 478.87 587.38 497.62 589.00 511.00 C 590.62 524.38 584.92 545.10 591.25 555.75 C 597.59 566.39 606.95 570.09 613.25 579.75 C 619.55 589.41 628.46 595.80 635.25 604.75 C 642.03 613.71 649.82 621.41 657.25 629.75 C 664.68 638.09 671.11 646.14 678.75 654.25 C 686.39 662.36 692.48 671.77 700.30 679.70 C 708.13 687.63 714.47 696.05 721.77 704.23 C 729.07 712.41 741.89 721.84 731.30 730.30 C 720.72 738.77 715.86 743.72 706.25 752.25 C 696.65 760.79 691.08 764.56 681.25 773.25 C 671.41 781.94 662.73 770.06 655.75 761.25 C 648.78 752.43 641.56 745.17 634.25 736.75 C 626.94 728.34 619.94 719.87 612.25 711.75 C 604.55 703.63 598.06 694.56 590.00 687.00
C 589.88 699.05 573.92 693.04 564.00 694.00 C 554.08 694.96 541.61 693.58 531.00 694.00 C 520.39 694.42 507.89 693.80 497.00 694.00 C 486.11 694.20 475.00 693.91 464.00 694.00 C 453.00 694.09 442.11 693.95 431.00 694.00 C 419.89 694.05 408.16 693.96 397.00 694.00
C 402.10 685.18 409.99 677.73 416.75 669.75 C 423.52 661.77 430.94 653.48 437.25 645.25 C 443.55 637.01 451.34 628.50 457.30 620.30 C 463.27 612.11 472.49 604.85 477.75 596.75 C 483.01 588.65 496.97 579.11 489.23 570.77 C 481.49 562.43 475.42 554.96 468.25 546.75 C 461.08 538.55 454.53 531.47 447.70 523.30 C 440.86 515.14 433.18 507.77 426.25 499.75 C 419.31 491.73 412.76 483.37 405.25 475.75 C 397.74 468.14 392.03 460.01 384.75 452.25 C 377.47 444.49 371.44 435.60 364.08 427.92 C 356.73 420.23 349.91 411.96 342.75 404.25 C 335.59 396.53 330.49 386.10 321.00 381.00
C 321.00 457.00 321.00 533.00 321.00 609.00
C 230.00 609.00 139.00 609.00 48.00 609.00
C 56.32 599.77 63.45 589.94 71.75 580.75 C 80.05 571.57 88.24 562.64 96.30 553.30 C 104.36 543.97 112.18 534.64 120.25 525.25 C 128.33 515.87 137.75 506.72 144.97 496.97 C 152.19 487.22 161.89 479.09 169.75 469.75 C 177.61 460.42 186.01 451.16 193.75 441.75 C 201.50 432.34 210.59 423.70 218.25 414.25 C 225.91 404.79 234.63 394.78 242.75 385.75 C 250.87 376.72 259.45 367.09 267.25 358.25 C 275.04 349.40 288.62 337.99 277.25 329.75 C 265.88 321.51 264.83 308.30 253.25 301.75 C 241.66 295.20 221.63 293.14 208.00 294.00 C 194.37 294.86 184.76 305.20 178.22 316.22 C 171.69 327.25 176.73 346.26 165.25 355.25 C 153.76 364.23 149.00 370.65 137.25 380.25 C 125.50 389.85 113.66 377.02 105.75 367.25 C 97.84 357.48 90.36 349.06 81.25 339.75 C 72.13 330.44 67.80 320.92 57.25 311.75 C 46.69 302.59 51.42 285.80 63.75 279.75 C 76.08 273.71 78.66 257.90 92.03 256.03 C 105.39 254.16 124.84 259.80 135.08 249.08 C 145.31 238.36 154.92 231.93 154.99 216.99 C 155.07 202.05 157.26 186.88 170.08 179.08 C 182.90 171.28 187.53 163.89 198.75 155.75 C 209.96 147.60 215.89 139.73 227.75 132.75 C 239.61 125.77 249.89 120.65 263.69 116.69 C 277.49 112.74 294.71 110.09 310.00 110.00 C 325.29 109.91 342.61 112.03 357.02 114.98 C 371.44 117.92 385.24 121.04 399.07 124.93 C 412.91 128.81 424.96 133.63 438.00 139.00
M 605.00 193.00 
C 634.23 198.95 658.91 213.65 676.30 239.70 C 693.70 265.74 698.64 303.57 686.23 332.23 C 673.82 360.89 656.88 380.28 627.98 391.98 C 599.07 403.67 559.32 400.31 533.77 382.23 C 508.22 364.14 492.72 340.17 488.02 309.98 C 483.33 279.78 494.70 244.13 517.25 223.25 C 539.79 202.37 572.95 186.48 605.00 193.00 Z"/>
</svg>